<svg width="68" height="68" viewBox="0 0 68 68" fill="none" xmlns="http://www.w3.org/2000/svg">
<rect width="68" height="68" rx="15" fill="url(#paint0_linear_16_833)"/>
<mask id="mask0_16_833" style="mask-type:alpha" maskUnits="userSpaceOnUse" x="16" y="16" width="36" height="36">
<rect x="16" y="16" width="36" height="36" fill="#D9D9D9"/>
</mask>
<g mask="url(#mask0_16_833)">
<path d="M31.1875 49C30.8125 49 30.4875 48.875 30.2125 48.625C29.9375 48.375 29.775 48.0625 29.725 47.6875L29.275 44.2C28.95 44.075 28.6438 43.925 28.3563 43.75C28.0688 43.575 27.7875 43.3875 27.5125 43.1875L24.25 44.5375C23.9 44.6875 23.55 44.7062 23.2 44.5938C22.85 44.4813 22.575 44.2625 22.375 43.9375L19.6 39.1C19.4 38.775 19.3375 38.425 19.4125 38.05C19.4875 37.675 19.675 37.375 19.975 37.15L22.7875 35.0125C22.7625 34.8375 22.75 34.6688 22.75 34.5063V33.4938C22.75 33.3313 22.7625 33.1625 22.7875 32.9875L19.975 30.85C19.675 30.625 19.4875 30.325 19.4125 29.95C19.3375 29.575 19.4 29.225 19.6 28.9L22.375 24.0625C22.575 23.7375 22.85 23.5188 23.2 23.4062C23.55 23.2937 23.9 23.3125 24.25 23.4625L27.5125 24.8125C27.7875 24.6125 28.075 24.425 28.375 24.25C28.675 24.075 28.975 23.925 29.275 23.8L29.725 20.3125C29.775 19.9375 29.9375 19.625 30.2125 19.375C30.4875 19.125 30.8125 19 31.1875 19H36.8125C37.1875 19 37.5125 19.125 37.7875 19.375C38.0625 19.625 38.225 19.9375 38.275 20.3125L38.725 23.8C39.05 23.925 39.3563 24.075 39.6438 24.25C39.9313 24.425 40.2125 24.6125 40.4875 24.8125L43.75 23.4625C44.1 23.3125 44.45 23.2937 44.8 23.4062C45.15 23.5188 45.425 23.7375 45.625 24.0625L48.4 28.9C48.6 29.225 48.6625 29.575 48.5875 29.95C48.5125 30.325 48.325 30.625 48.025 30.85L45.2125 32.9875C45.2375 33.1625 45.25 33.3313 45.25 33.4938V34.5063C45.25 34.6688 45.225 34.8375 45.175 35.0125L47.9875 37.15C48.2875 37.375 48.475 37.675 48.55 38.05C48.625 38.425 48.5625 38.775 48.3625 39.1L45.5875 43.9C45.3875 44.225 45.1063 44.45 44.7438 44.575C44.3813 44.7 44.025 44.6875 43.675 44.5375L40.4875 43.1875C40.2125 43.3875 39.925 43.575 39.625 43.75C39.325 43.925 39.025 44.075 38.725 44.2L38.275 47.6875C38.225 48.0625 38.0625 48.375 37.7875 48.625C37.5125 48.875 37.1875 49 36.8125 49H31.1875ZM32.5 46H35.4625L35.9875 42.025C36.7625 41.825 37.4813 41.5312 38.1438 41.1437C38.8063 40.7563 39.4125 40.2875 39.9625 39.7375L43.675 41.275L45.1375 38.725L41.9125 36.2875C42.0375 35.9375 42.125 35.5688 42.175 35.1813C42.225 34.7938 42.25 34.4 42.25 34C42.25 33.6 42.225 33.2063 42.175 32.8188C42.125 32.4313 42.0375 32.0625 41.9125 31.7125L45.1375 29.275L43.675 26.725L39.9625 28.3C39.4125 27.725 38.8063 27.2438 38.1438 26.8563C37.4813 26.4688 36.7625 26.175 35.9875 25.975L35.5 22H32.5375L32.0125 25.975C31.2375 26.175 30.5188 26.4688 29.8563 26.8563C29.1938 27.2438 28.5875 27.7125 28.0375 28.2625L24.325 26.725L22.8625 29.275L26.0875 31.675C25.9625 32.05 25.875 32.425 25.825 32.8C25.775 33.175 25.75 33.575 25.75 34C25.75 34.4 25.775 34.7875 25.825 35.1625C25.875 35.5375 25.9625 35.9125 26.0875 36.2875L22.8625 38.725L24.325 41.275L28.0375 39.7C28.5875 40.275 29.1938 40.7563 29.8563 41.1437C30.5188 41.5312 31.2375 41.825 32.0125 42.025L32.5 46ZM34.075 39.25C35.525 39.25 36.7625 38.7375 37.7875 37.7125C38.8125 36.6875 39.325 35.45 39.325 34C39.325 32.55 38.8125 31.3125 37.7875 30.2875C36.7625 29.2625 35.525 28.75 34.075 28.75C32.6 28.75 31.3563 29.2625 30.3438 30.2875C29.3313 31.3125 28.825 32.55 28.825 34C28.825 35.45 29.3313 36.6875 30.3438 37.7125C31.3563 38.7375 32.6 39.25 34.075 39.25Z" fill="white"/>
</g>
<defs>
<linearGradient id="paint0_linear_16_833" x1="-5.06639e-07" y1="34" x2="68" y2="34" gradientUnits="userSpaceOnUse">
<stop stop-color="#36A6C4"/>
<stop offset="1" stop-color="#9110A8"/>
</linearGradient>
</defs>
</svg>
